<?xml version="1.0" encoding="UTF-8"?>
<svg xmlns="http://www.w3.org/2000/svg" xmlns:xlink="http://www.w3.org/1999/xlink" viewBox="0 0 48 48" width="48px" height="48px">
<defs>
<radialGradient id="radial0" gradientUnits="userSpaceOnUse" cx="69.445" cy="150.625427" fx="69.445" fy="150.625427" r="160.888077" gradientTransform="matrix(0.362791,0,0,0.362791,-7.2,-7.2)">
<stop offset="0" style="stop-color:rgb(100%,86.666667%,33.333334%);stop-opacity:1;"/>
<stop offset="0.328" style="stop-color:rgb(100%,32.941177%,24.705882%);stop-opacity:1;"/>
<stop offset="0.348" style="stop-color:rgb(98.823529%,32.156864%,27.058825%);stop-opacity:1;"/>
<stop offset="0.504" style="stop-color:rgb(90.196079%,27.843139%,44.313726%);stop-opacity:1;"/>
<stop offset="0.643" style="stop-color:rgb(83.529413%,24.313726%,56.862748%);stop-opacity:1;"/>
<stop offset="0.761" style="stop-color:rgb(80.000001%,22.352941%,64.313728%);stop-opacity:1;"/>
<stop offset="0.841" style="stop-color:rgb(78.431374%,21.568628%,67.058825%);stop-opacity:1;"/>
</radialGradient>
<radialGradient id="radial1" gradientUnits="userSpaceOnUse" cx="42.23317" cy="19.852751" fx="42.23317" fy="19.852751" r="106.829918" gradientTransform="matrix(0.362791,0,0,0.362791,-7.2,-7.2)">
<stop offset="0" style="stop-color:rgb(25.490198%,40.784314%,78.823531%);stop-opacity:1;"/>
<stop offset="0.999" style="stop-color:rgb(25.490198%,40.784314%,78.823531%);stop-opacity:0;"/>
</radialGradient>
</defs>
<g id="surface17692397">
<path style=" stroke:none;fill-rule:nonzero;fill:url(#radial0);" d="M 37.023438 47.386719 L 11.023438 47.410156 C 5.300781 47.417969 0.617188 42.742188 0.613281 37.023438 L 0.585938 11.023438 C 0.582031 5.300781 5.257812 0.617188 10.976562 0.613281 L 36.976562 0.585938 C 42.695312 0.582031 47.378906 5.257812 47.386719 10.976562 L 47.410156 36.976562 C 47.417969 42.699219 42.742188 47.382812 37.023438 47.386719 Z M 37.023438 47.386719 "/>
<path style=" stroke:none;fill-rule:nonzero;fill:url(#radial1);" d="M 37.023438 47.386719 L 11.023438 47.410156 C 5.300781 47.417969 0.617188 42.742188 0.613281 37.023438 L 0.585938 11.023438 C 0.582031 5.300781 5.257812 0.617188 10.976562 0.613281 L 36.976562 0.585938 C 42.695312 0.582031 47.378906 5.257812 47.386719 10.976562 L 47.410156 36.976562 C 47.417969 42.699219 42.742188 47.382812 37.023438 47.386719 Z M 37.023438 47.386719 "/>
<path style=" stroke:none;fill-rule:nonzero;fill:rgb(100%,100%,100%);fill-opacity:1;" d="M 24 33.101562 C 18.984375 33.101562 14.898438 29.019531 14.898438 24 C 14.898438 18.980469 18.984375 14.898438 24 14.898438 C 29.015625 14.898438 33.101562 18.980469 33.101562 24 C 33.101562 29.019531 29.015625 33.101562 24 33.101562 Z M 24 17.5 C 20.414062 17.5 17.5 20.414062 17.5 24 C 17.5 27.585938 20.414062 30.5 24 30.5 C 27.585938 30.5 30.5 27.585938 30.5 24 C 30.5 20.414062 27.585938 17.5 24 17.5 Z M 24 17.5 "/>
<path style=" stroke:none;fill-rule:nonzero;fill:rgb(100%,100%,100%);fill-opacity:1;" d="M 35.699219 14.25 C 35.699219 15.328125 34.828125 16.199219 33.75 16.199219 C 32.671875 16.199219 31.800781 15.328125 31.800781 14.25 C 31.800781 13.171875 32.671875 12.300781 33.75 12.300781 C 34.828125 12.300781 35.699219 13.171875 35.699219 14.25 Z M 35.699219 14.25 "/>
<path style=" stroke:none;fill-rule:nonzero;fill:rgb(100%,100%,100%);fill-opacity:1;" d="M 31.800781 40.898438 L 16.199219 40.898438 C 11.183594 40.898438 7.101562 36.816406 7.101562 31.800781 L 7.101562 16.199219 C 7.101562 11.183594 11.183594 7.101562 16.199219 7.101562 L 31.800781 7.101562 C 36.816406 7.101562 40.898438 11.183594 40.898438 16.199219 L 40.898438 31.800781 C 40.898438 36.816406 36.816406 40.898438 31.800781 40.898438 Z M 16.199219 9.699219 C 12.617188 9.699219 9.699219 12.617188 9.699219 16.199219 L 9.699219 31.800781 C 9.699219 35.382812 12.617188 38.300781 16.199219 38.300781 L 31.800781 38.300781 C 35.382812 38.300781 38.300781 35.382812 38.300781 31.800781 L 38.300781 16.199219 C 38.300781 12.617188 35.382812 9.699219 31.800781 9.699219 Z M 16.199219 9.699219 "/>
</g>
</svg>
