<?xml version="1.0" encoding="UTF-8"?>
<svg xmlns="http://www.w3.org/2000/svg" xmlns:xlink="http://www.w3.org/1999/xlink" viewBox="0 0 48 48" width="48px" height="48px">
<g id="surface13644141">
<path style=" stroke:none;fill-rule:nonzero;fill:rgb(1.176471%,66.274512%,95.686275%);fill-opacity:1;" d="M 47.398438 8.957031 C 45.679688 9.71875 43.832031 10.226562 41.878906 10.46875 C 43.863281 9.289062 45.390625 7.410156 46.105469 5.191406 C 44.25 6.28125 42.191406 7.082031 40.003906 7.5 C 38.257812 5.648438 35.765625 4.5 33.003906 4.5 C 27.699219 4.5 23.402344 8.761719 23.402344 14.015625 C 23.402344 14.757812 23.488281 15.484375 23.652344 16.1875 C 15.671875 15.785156 8.59375 11.992188 3.859375 6.238281 C 3.027344 7.644531 2.558594 9.289062 2.558594 11.027344 C 2.558594 14.332031 4.25 17.238281 6.832031 18.953125 C 5.257812 18.90625 3.773438 18.46875 2.476562 17.765625 C 2.476562 17.792969 2.476562 17.835938 2.476562 17.878906 C 2.476562 22.492188 5.789062 26.335938 10.175781 27.210938 C 9.375 27.433594 8.527344 27.554688 7.652344 27.554688 C 7.035156 27.554688 6.429688 27.484375 5.84375 27.378906 C 7.066406 31.152344 10.609375 33.910156 14.8125 33.992188 C 11.523438 36.539062 7.386719 38.066406 2.886719 38.066406 C 2.109375 38.066406 1.347656 38.019531 0.597656 37.929688 C 4.847656 40.621094 9.898438 42.199219 15.316406 42.199219 C 32.976562 42.199219 42.640625 27.695312 42.640625 15.117188 C 42.640625 14.703125 42.625 14.292969 42.605469 13.886719 C 44.492188 12.554688 46.117188 10.875 47.398438 8.957031 "/>
</g>
</svg>
